<svg xmlns="http://www.w3.org/2000/svg" viewBox="0 0 300 180" preserveAspectRatio="xMidYMid slice">
  <g fill="#1a0a08">
    <path d="M 15 168 L 13 158 L 17 162 L 19 156 L 21 162 L 23 160 L 20 168 Z"/>
    <path d="M 45 170 L 43 160 L 47 164 L 49 158 L 51 164 L 53 162 L 50 170 Z"/>
    <path d="M 75 166 L 73 156 L 77 160 L 79 154 L 81 160 L 83 158 L 80 166 Z"/>
    <path d="M 105 170 L 103 160 L 107 164 L 109 158 L 111 164 L 113 162 L 110 170 Z"/>
    <path d="M 135 168 L 133 158 L 137 162 L 139 156 L 141 162 L 143 160 L 140 168 Z"/>
    <path d="M 165 170 L 163 160 L 167 164 L 169 158 L 171 164 L 173 162 L 170 170 Z"/>
    <path d="M 195 166 L 193 156 L 197 160 L 199 154 L 201 160 L 203 158 L 200 166 Z"/>
    <path d="M 225 170 L 223 160 L 227 164 L 229 158 L 231 164 L 233 162 L 230 170 Z"/>
    <path d="M 255 168 L 253 158 L 257 162 L 259 156 L 261 162 L 263 160 L 260 168 Z"/>
    <path d="M 285 170 L 283 160 L 287 164 L 289 158 L 291 164 L 293 162 L 290 170 Z"/>
  </g>
</svg>
