<svg xmlns="http://www.w3.org/2000/svg" viewBox="0 0 300 180" preserveAspectRatio="xMidYMid slice">
  <defs>
    <linearGradient id="farHillH" x1="0" y1="0" x2="0" y2="1">
      <stop offset="0%" stop-color="#5a2a1a"/>
      <stop offset="100%" stop-color="#3a1a14"/>
    </linearGradient>
    <radialGradient id="moonGlowH" cx="50%" cy="50%" r="50%">
      <stop offset="0%" stop-color="#c13a3a" stop-opacity="0.5"/>
      <stop offset="100%" stop-color="#c13a3a" stop-opacity="0"/>
    </radialGradient>
  </defs>
  <circle cx="220" cy="50" r="38" fill="url(#moonGlowH)"/>
  <circle cx="220" cy="50" r="14" fill="#c13a3a"/>
  <circle cx="216" cy="46" r="3" fill="#7a1a1a" opacity="0.5"/>
  <circle cx="224" cy="52" r="2" fill="#7a1a1a" opacity="0.4"/>
  <ellipse cx="80" cy="40" rx="30" ry="6" fill="#1a0a08" opacity="0.4"/>
  <ellipse cx="120" cy="50" rx="20" ry="5" fill="#1a0a08" opacity="0.3"/>
  <path d="M 0 120 Q 30 95 60 105 T 120 90 T 180 100 T 240 85 T 300 95 L 300 180 L 0 180 Z" fill="url(#farHillH)"/>
  <path d="M 0 120 Q 30 95 60 105 T 120 90 T 180 100 T 240 85 T 300 95" fill="none" stroke="#6a3a1a" stroke-width="1" opacity="0.5"/>
  <circle cx="100" cy="100" r="1.5" fill="#c13a3a"/>
  <circle cx="160" cy="105" r="1" fill="#f97316"/>
</svg>
